<svg width="1630" height="720" viewBox="0 0 163 72" fill="none" xmlns="http://www.w3.org/2000/svg">
<path d="M156.894 36.8728C158.691 37.6595 159.669 38.7592 159.865 40.166C160.136 42.0283 159.961 43.8194 159.363 45.4634C158.908 46.4368 158.412 47.3808 157.793 48.237C157.179 49.1283 156.442 49.9316 155.506 50.6236C154.958 51.0365 154.317 51.3207 153.659 51.4999C152.965 51.6848 152.195 51.6303 151.355 51.3713C149.606 50.6489 148.627 49.5492 148.414 48.0373C147.621 43.6702 148.947 40.0731 152.439 37.3104C153.505 36.3095 155.004 36.1734 156.894 36.8728Z" fill="#1F1F1F"/>
<path d="M153.557 13.8918C153.073 14.69 152.49 15.3246 151.742 15.842C150.994 16.3594 150.17 16.8532 149.329 17.242C146.034 18.7856 142.675 20.1598 139.251 21.3645C128.174 25.5778 117.197 29.9548 106.237 34.4368C105.919 34.4885 105.695 34.6688 105.489 34.9542C105.952 35.3464 106.468 35.6221 107.038 35.7811C115.05 39.3327 123.027 42.8901 131.039 46.4417C133.1 47.2933 135.066 48.2322 136.949 49.3284C137.454 49.534 137.958 49.9554 138.427 50.5986C136.675 50.7399 135.042 50.7181 133.555 50.4924C127.228 49.6879 120.984 48.7261 114.752 47.6185C109.953 46.853 105.189 46.0819 100.39 45.3165C98.7861 45.038 97.2357 44.6429 95.7269 44.0612C95.4158 43.932 95.181 43.8263 95.0341 43.8143C94.852 43.808 94.7109 43.8309 94.6224 43.9532C94.5339 44.0756 94.3865 44.2794 94.2211 44.5941C92.0364 48.4748 89.8516 52.3556 87.6317 56.2421C85.7835 59.5285 83.7474 62.7735 81.547 65.9014C81.1989 66.4257 80.7687 66.8914 80.3032 67.3629C80.0614 67.654 79.744 67.7057 79.3623 67.588C81.4956 63.1761 83.5114 58.7113 85.4099 54.1938C87.3083 49.6762 89.2774 45.1471 91.2348 40.548C89.9348 41.0114 88.6701 41.4691 87.4465 41.9561C86.1876 42.4488 84.9113 42.8364 83.5766 43.0897C83.9132 42.4953 84.3139 42.0704 84.7847 41.8499C86.6334 40.5417 88.5701 39.3272 90.5536 38.177C91.2539 37.8112 91.6315 37.2461 91.6569 36.5226C91.7662 35.2099 92.1398 33.962 92.7776 32.7791C93.1679 31.8523 93.8925 31.1948 94.8866 30.8531C95.2688 30.7549 95.4868 30.5395 95.6169 30.2306C96.3149 28.5343 97.0424 26.7972 97.7936 24.9843C96.9822 25.1164 96.3479 25.0039 95.9315 24.676C95.4798 24.3538 95.1872 23.8979 95.0126 23.2788C94.1156 20.2595 94.4585 17.2901 96.0355 14.3356C96.7497 13.1762 97.7802 12.397 99.1623 11.9921C100.715 11.5235 102.25 11.1657 103.808 10.9481C104.589 10.8568 105.184 10.5082 105.62 9.86161C106.087 9.17424 106.676 8.57473 107.347 8.03379C108.696 6.98694 109.694 7.11211 110.332 8.33926C110.618 8.97609 110.97 9.3505 111.387 9.46247C111.803 9.57444 112.344 9.55836 113.009 9.41422C120.77 7.93491 128.595 6.62501 136.408 5.46096C141.188 4.79078 145.979 4.19066 150.781 3.66059C151.669 3.55206 152.392 3.54229 152.95 3.63129C153.479 3.76106 153.883 4.0189 154.205 4.43407C154.492 4.85499 154.702 5.46827 154.87 6.26819C155.41 8.87811 154.992 11.3921 153.557 13.8918ZM102.019 31.4904C110.217 26.9544 118.386 22.4592 126.549 17.929C126.262 17.724 126.039 17.6884 125.874 17.7871C120.059 18.9856 114.261 20.2892 108.492 21.7679C107.827 21.912 107.344 22.2784 107.008 22.8728C105.503 25.3839 103.956 27.8658 102.416 30.3827C102.127 30.6095 102.009 30.9885 102.019 31.4904Z" fill="#1F1F1F"/>
<path d="M114.13 5.95824C113.981 6.59393 113.698 7.0717 113.244 7.39729C110.238 10.6923 107.232 13.9873 104.185 17.2531C96.1526 25.8627 88.284 34.5895 80.5444 43.4392C76.3293 48.4059 72.2374 53.4604 68.2629 58.5677C65.5919 61.9161 62.7097 65.0831 59.6986 68.1272C58.9798 68.8197 58.2142 69.4479 57.4075 70.0469C56.0121 71.0294 54.7844 70.8336 53.7186 69.4244C53.3497 68.945 53.0513 68.454 52.8587 67.9458C51.5269 64.9253 51.3412 61.8261 52.3781 58.6718C53.6809 54.9346 55.2127 51.2681 56.8973 47.6486C60.8278 39.2032 64.8757 30.8106 68.9999 22.4416C70.5896 19.1254 72.2145 15.8034 73.8395 12.4814C74.5901 10.8844 75.5049 9.40457 76.5371 7.97757C76.9795 7.366 77.4508 6.92957 77.8863 6.7148C78.3275 6.53506 78.7624 6.53621 79.1967 6.75327C79.6309 6.97033 80.0294 7.40904 80.4272 8.06368C81.3809 9.67097 81.9464 11.3414 82.1182 13.04C82.29 14.7386 81.921 16.4533 81.0114 18.1841C76.6535 26.0156 72.4894 33.9235 68.4837 41.9136C68.3715 42.1117 68.2651 42.3448 68.1587 42.578C68.0523 42.8111 67.9927 43.1086 67.9447 43.4761C71.8209 39.9674 75.685 36.6047 79.5016 33.3935C88.2134 25.8243 97.0599 18.4131 106.053 11.2298C108.067 9.60702 110.139 8.11857 112.306 6.75875C112.771 6.28729 113.383 6.04381 114.13 5.95824Z" fill="#1F1F1F"/>
<path d="M49.1668 41.8388C48.8374 41.857 45.0123 41.8661 37.6915 41.8661C37.6183 41.8661 37.5816 41.857 37.5816 41.8388C37.5267 41.6934 37.2248 40.8483 36.6757 39.3035C36.1266 37.7405 35.8064 36.8409 35.7148 36.6047C37.8928 30.7344 39.2105 27.1541 39.6681 25.8638C39.6681 25.8638 42.267 25.8638 47.4647 25.8638C47.6477 26.1546 48.389 27.345 49.6884 29.435C50.9879 31.525 51.7291 32.7154 51.9121 33.0062C51.6925 33.0244 50.8597 33.0335 49.4139 33.0335H40.7662C40.6015 33.4878 40.3544 34.1421 40.025 34.9963C39.7138 35.8504 39.5217 36.3957 39.4485 36.6319C39.54 36.8864 39.6772 37.2771 39.8602 37.8042C40.0433 38.313 40.1897 38.7038 40.2995 38.9764H46.449C46.5588 38.6674 46.6869 38.3221 46.8333 37.9405C46.9797 37.5406 47.1261 37.1499 47.2726 36.7682C47.419 36.3684 47.5471 36.0231 47.6569 35.7323C47.8033 35.7141 48.1419 35.705 48.6727 35.705C49.2217 35.705 49.7708 35.705 50.3198 35.705C50.8689 35.705 51.2166 35.7141 51.3631 35.7323C50.5395 38.0041 49.8074 40.0396 49.1668 41.8388ZM41.8369 30.1165H47.1627C46.8882 29.6258 46.6045 29.1715 46.3117 28.7535H42.331C42.2761 28.8988 42.1938 29.126 42.0839 29.435C41.9741 29.7439 41.8918 29.9711 41.8369 30.1165Z" fill="#BE04E3"/>
<path d="M33.987 41.8658C33.7857 41.884 33.2915 41.8931 32.5045 41.8931C31.7358 41.8931 31.2508 41.884 31.0495 41.8658C29.3108 38.5399 28.3683 36.7407 28.2218 36.4681H25.1746C25.6321 34.9778 25.9158 34.0055 26.0256 33.5511C26.3001 33.5511 26.895 33.5511 27.8101 33.5511C28.7252 33.533 29.32 33.5239 29.5945 33.5239L29.6219 33.5511H31.928C32.1659 32.8605 32.5594 31.7792 33.1085 30.3071C32.5045 29.6165 32.0561 29.0894 31.7633 28.7259H26.4649C25.8792 30.3616 25.0556 32.6697 23.9941 35.6503C22.9509 38.6308 22.2279 40.6936 21.8253 41.8385C21.5691 41.8567 20.956 41.8658 19.9859 41.8658C18.9976 41.8658 18.3754 41.8567 18.1191 41.8385C18.8146 39.8757 19.8029 37.0769 21.0841 33.4421C22.3652 29.8073 23.262 27.272 23.7745 25.8362C23.7745 25.8362 24.8543 25.8362 27.0139 25.8362C30.5462 25.8362 32.5594 25.8453 33.0536 25.8635C33.1817 26.0089 33.7124 26.6359 34.6459 27.7445C35.5976 28.8531 36.3205 29.7073 36.8146 30.3071C36.0093 32.5061 35.2773 34.5507 34.6184 36.4408C34.2341 36.459 33.0719 36.4681 31.1319 36.4681C31.3149 36.7952 32.2666 38.5945 33.987 41.8658Z" fill="#BE04E3"/>
<path d="M3.70615 41.866C3.44993 41.8842 2.83681 41.8933 1.8668 41.8933C0.878496 41.8933 0.256228 41.8842 0 41.866C0.622268 40.9392 2.23284 38.5674 4.83173 34.7509C7.44891 30.9343 9.46213 27.9901 10.8714 25.9183C11.0361 25.9183 11.3838 25.9183 11.9146 25.9183C12.4454 25.9183 12.9761 25.9183 13.5069 25.9183C14.0559 25.9183 14.4128 25.9183 14.5775 25.9183C16.4809 34.6237 17.6523 39.9214 18.0915 41.8115C17.8902 41.8297 17.396 41.8388 16.6091 41.8388C15.8404 41.8388 15.3645 41.8297 15.1815 41.8115C14.6874 39.6852 13.7448 35.4778 12.3538 29.1896C11.0727 31.0615 9.48959 33.3969 7.60448 36.1957C10.4596 36.1957 12.0976 36.2048 12.5186 36.223C12.848 37.6769 13.0676 38.6492 13.1774 39.1399C12.6101 39.1399 11.878 39.1399 10.9812 39.1399C10.1027 39.1399 9.03204 39.1399 7.7692 39.1399C6.52466 39.1218 5.80173 39.1127 5.60041 39.1127C5.39909 39.4035 5.08796 39.8578 4.66701 40.4757C4.24606 41.0936 3.92578 41.5571 3.70615 41.866Z" fill="#BE04E3"/>
<path d="M54.8602 21.5488C54.5307 21.5669 50.7056 21.576 43.3848 21.576C43.3116 21.576 43.275 21.5669 43.275 21.5488C43.2201 21.4034 42.9181 20.5583 42.3691 19.0135C41.82 17.4505 41.4997 16.5509 41.4082 16.3146C43.5861 10.4444 44.9039 6.86409 45.3614 5.57373C45.3614 5.57373 47.9603 5.57373 53.1581 5.57373C53.3411 5.86452 54.0823 7.05492 55.3818 9.14494C56.6812 11.235 57.4225 12.4254 57.6055 12.7162C57.3859 12.7343 56.5531 12.7434 55.1073 12.7434H46.4596C46.2948 13.1978 46.0478 13.852 45.7183 14.7062C45.4072 15.5604 45.215 16.1056 45.1418 16.3419C45.2333 16.5963 45.3706 16.9871 45.5536 17.5141C45.7366 18.023 45.883 18.4137 45.9929 18.6863H52.1423C52.2521 18.3774 52.3803 18.0321 52.5267 17.6504C52.6731 17.2506 52.8195 16.8598 52.9659 16.4782C53.1123 16.0784 53.2404 15.7331 53.3503 15.4423C53.4967 15.4241 53.8353 15.415 54.366 15.415C54.9151 15.415 55.4641 15.415 56.0132 15.415C56.5623 15.415 56.91 15.4241 57.0564 15.4423C56.2328 17.714 55.5007 19.7495 54.8602 21.5488ZM47.5302 9.82647H52.8561C52.5816 9.33577 52.2979 8.88142 52.0051 8.46341H48.0244C47.9695 8.6088 47.8871 8.83598 47.7773 9.14494C47.6675 9.4539 47.5851 9.68108 47.5302 9.82647Z" fill="#1F1F1F"/>
<path d="M26.0797 21.5486C25.8235 21.5668 25.1646 21.5759 24.1031 21.5759C23.0416 21.5759 22.3827 21.5668 22.1265 21.5486C22.5108 20.3855 23.3344 17.9411 24.5972 14.2154C25.8784 10.4715 26.8575 7.59091 27.5347 5.57359C27.7909 5.55541 28.4132 5.54633 29.4015 5.54633C30.3898 5.54633 31.0121 5.55541 31.2683 5.57359C30.5179 7.75448 29.4015 11.0349 27.919 15.4149C29.1453 13.8701 30.399 12.2435 31.6801 10.5351H34.6999C34.8647 11.2621 35.13 12.3798 35.4961 13.8882C35.8621 15.3785 36.1366 16.5053 36.3197 17.2686C37.1067 14.906 38.4244 10.9986 40.2729 5.54633C40.5291 5.54633 41.1514 5.54633 42.1397 5.54633C43.128 5.54633 43.7503 5.54633 44.0065 5.54633C41.8835 11.7619 40.0716 17.096 38.5708 21.5486C38.2597 21.5668 37.857 21.5759 37.3629 21.5759C36.887 21.5577 36.3014 21.5486 35.6059 21.5486C34.9104 21.5304 34.5078 21.5214 34.398 21.5214C34.1783 20.6127 33.8489 19.2496 33.4096 17.4322C32.9704 15.6148 32.641 14.2517 32.4213 13.343C31.9272 13.9973 29.8133 16.7325 26.0797 21.5486Z" fill="#1F1F1F"/>
</svg>
